<?xml version="1.0" encoding="us-ascii" standalone="no"?><svg xmlns="http://www.w3.org/2000/svg" xmlns:xlink="http://www.w3.org/1999/xlink" contentStyleType="text/css" height="188px" preserveAspectRatio="none" style="width:84px;height:188px;background:#FFFFFF;" version="1.1" viewBox="0 0 84 188" width="84px" zoomAndPan="magnify"><defs/><g><!--class Mago--><g id="elem_Mago"><rect codeLine="3" fill="#F1F1F1" height="48" id="Mago" rx="2.5" ry="2.5" style="stroke:#181818;stroke-width:0.5;" width="67" x="8.5" y="7"/><ellipse cx="23.5" cy="23" fill="#ADD1B2" rx="11" ry="11" style="stroke:#181818;stroke-width:1.0;"/><path d="M26.2656,18.875 Q26.4219,18.6563 26.6094,18.5469 Q26.7969,18.4375 27.0156,18.4375 Q27.3906,18.4375 27.625,18.7031 Q27.8594,18.9531 27.8594,19.5625 L27.8594,21.0156 Q27.8594,21.625 27.625,21.8906 Q27.3906,22.1563 27.0156,22.1563 Q26.6719,22.1563 26.4688,21.9531 Q26.2656,21.7656 26.1563,21.25 Q26.1094,20.8906 25.9219,20.7031 Q25.5938,20.3281 24.9844,20.1094 Q24.375,19.8906 23.75,19.8906 Q22.9844,19.8906 22.3438,20.2188 Q21.7188,20.5469 21.2188,21.2969 Q20.7344,22.0469 20.7344,23.0781 L20.7344,24.1719 Q20.7344,25.4063 21.625,26.2344 Q22.5156,27.0469 24.1094,27.0469 Q25.0469,27.0469 25.7031,26.7969 Q26.0938,26.6406 26.5156,26.2031 Q26.7813,25.9375 26.9219,25.8594 Q27.0781,25.7813 27.2813,25.7813 Q27.6094,25.7813 27.8594,26.0469 Q28.125,26.2969 28.125,26.6406 Q28.125,26.9844 27.7813,27.3906 Q27.2813,27.9688 26.4844,28.2969 Q25.4063,28.75 24.1094,28.75 Q22.5938,28.75 21.3906,28.125 Q20.4063,27.625 19.7188,26.5625 Q19.0313,25.4844 19.0313,24.2031 L19.0313,23.0469 Q19.0313,21.7188 19.6406,20.5781 Q20.2656,19.4219 21.3594,18.8125 Q22.4531,18.1875 23.6875,18.1875 Q24.4219,18.1875 25.0625,18.3594 Q25.7188,18.5156 26.2656,18.875 Z " fill="#000000"/><text fill="#000000" font-family="sans-serif" font-size="14" lengthAdjust="spacing" textLength="35" x="37.5" y="28.7285">Mago</text><line style="stroke:#181818;stroke-width:0.5;" x1="9.5" x2="74.5" y1="39" y2="39"/><line style="stroke:#181818;stroke-width:0.5;" x1="9.5" x2="74.5" y1="47" y2="47"/></g><!--class Magia--><g id="elem_Magia"><rect codeLine="4" fill="#F1F1F1" height="48" id="Magia" rx="2.5" ry="2.5" style="stroke:#181818;stroke-width:0.5;" width="70" x="7" y="133"/><ellipse cx="22" cy="149" fill="#ADD1B2" rx="11" ry="11" style="stroke:#181818;stroke-width:1.0;"/><path d="M24.7656,144.875 Q24.9219,144.6563 25.1094,144.5469 Q25.2969,144.4375 25.5156,144.4375 Q25.8906,144.4375 26.125,144.7031 Q26.3594,144.9531 26.3594,145.5625 L26.3594,147.0156 Q26.3594,147.625 26.125,147.8906 Q25.8906,148.1563 25.5156,148.1563 Q25.1719,148.1563 24.9688,147.9531 Q24.7656,147.7656 24.6563,147.25 Q24.6094,146.8906 24.4219,146.7031 Q24.0938,146.3281 23.4844,146.1094 Q22.875,145.8906 22.25,145.8906 Q21.4844,145.8906 20.8438,146.2188 Q20.2188,146.5469 19.7188,147.2969 Q19.2344,148.0469 19.2344,149.0781 L19.2344,150.1719 Q19.2344,151.4063 20.125,152.2344 Q21.0156,153.0469 22.6094,153.0469 Q23.5469,153.0469 24.2031,152.7969 Q24.5938,152.6406 25.0156,152.2031 Q25.2813,151.9375 25.4219,151.8594 Q25.5781,151.7813 25.7813,151.7813 Q26.1094,151.7813 26.3594,152.0469 Q26.625,152.2969 26.625,152.6406 Q26.625,152.9844 26.2813,153.3906 Q25.7813,153.9688 24.9844,154.2969 Q23.9063,154.75 22.6094,154.75 Q21.0938,154.75 19.8906,154.125 Q18.9063,153.625 18.2188,152.5625 Q17.5313,151.4844 17.5313,150.2031 L17.5313,149.0469 Q17.5313,147.7188 18.1406,146.5781 Q18.7656,145.4219 19.8594,144.8125 Q20.9531,144.1875 22.1875,144.1875 Q22.9219,144.1875 23.5625,144.3594 Q24.2188,144.5156 24.7656,144.875 Z " fill="#000000"/><text fill="#000000" font-family="sans-serif" font-size="14" lengthAdjust="spacing" textLength="38" x="36" y="154.7285">Magia</text><line style="stroke:#181818;stroke-width:0.5;" x1="8" x2="76" y1="165" y2="165"/><line style="stroke:#181818;stroke-width:0.5;" x1="8" x2="76" y1="173" y2="173"/></g><!--link Mago to Magia--><g id="link_Mago_Magia"><path codeLine="6" d="M42,55.03 C42,77.17 42,104.44 42,126.67 " fill="none" id="Mago-to-Magia" style="stroke:#181818;stroke-width:1.0;stroke-dasharray:7.0,7.0;"/><polygon fill="#181818" points="42,132.67,46,123.67,42,127.67,38,123.67,42,132.67" style="stroke:#181818;stroke-width:1.0;"/><text fill="#000000" font-family="sans-serif" font-size="13" lengthAdjust="spacing" textLength="21" x="43" y="99.4951">usa</text></g><!--SRC=[oyXCILL8pIqegVHDpKrABIhcuahEIImkLl1DJCz7C3CJkRX08WfwUdOGleALWb9fSQ8I0000]--></g></svg>