<svg xmlns="http://www.w3.org/2000/svg" xmlns:xlink="http://www.w3.org/1999/xlink" contentStyleType="text/css" data-diagram-type="CLASS" height="329px" preserveAspectRatio="none" style="width:984px;height:329px;background:#FFFFFF;" version="1.1" viewBox="0 0 984 329" width="984px" zoomAndPan="magnify"><title>Diagrama de Classes - Animais e Gerenciador de Som</title><defs/><g><g class="title" data-source-line="5"><text fill="#000000" font-family="sans-serif" font-size="14" font-weight="bold" lengthAdjust="spacing" textLength="422.1191" x="274.3529" y="22.9951">Diagrama de Classes - Animais e Gerenciador de Som</text></g><!--class GerenciadorSom--><g class="entity" data-entity="GerenciadorSom" data-source-line="8" data-uid="ent0002" id="entity_GerenciadorSom"><rect fill="#F1F1F1" height="56.2969" rx="2.5" ry="2.5" style="stroke:#181818;stroke-width:0.5;" width="187.5332" x="164.23" y="257.8469"/><ellipse cx="196.4944" cy="273.8469" fill="#ADD1B2" rx="11" ry="11" style="stroke:#181818;stroke-width:1;"/><path d="M199.4631,279.4875 Q198.885,279.7844 198.2444,279.925 Q197.6037,280.0813 196.9006,280.0813 Q194.4006,280.0813 193.0725,278.4406 Q191.76,276.7844 191.76,273.6594 Q191.76,270.5344 193.0725,268.8781 Q194.4006,267.2219 196.9006,267.2219 Q197.6037,267.2219 198.2444,267.3781 Q198.9006,267.5344 199.4631,267.8313 L199.4631,270.55 Q198.8381,269.9719 198.2444,269.7063 Q197.6506,269.425 197.0256,269.425 Q195.6819,269.425 194.9944,270.5031 Q194.3069,271.5656 194.3069,273.6594 Q194.3069,275.7531 194.9944,276.8313 Q195.6819,277.8938 197.0256,277.8938 Q197.6506,277.8938 198.2444,277.6281 Q198.8381,277.3469 199.4631,276.7688 L199.4631,279.4875 Z " fill="#000000"/><text fill="#000000" font-family="sans-serif" font-size="14" lengthAdjust="spacing" textLength="117.168" x="214.3309" y="278.6936">GerenciadorSom</text><line style="stroke:#181818;stroke-width:0.5;" x1="165.23" x2="350.7632" y1="289.8469" y2="289.8469"/><ellipse cx="175.23" cy="303.4953" fill="#84BE84" rx="3" ry="3" style="stroke:#038048;stroke-width:1;"/><text fill="#000000" font-family="sans-serif" font-size="14" lengthAdjust="spacing" textLength="161.5332" x="184.23" y="306.842">tocarSom(string) : void</text></g><!--class Animal--><g class="entity" data-entity="Animal" data-source-line="13" data-uid="ent0003" id="entity_Animal"><rect fill="#F1F1F1" height="113.1875" rx="2.5" ry="2.5" style="stroke:#181818;stroke-width:0.5;" width="262.5439" x="394.72" y="76.5169"/><ellipse cx="497.5188" cy="92.5169" fill="#A9DCDF" rx="11" ry="11" style="stroke:#181818;stroke-width:1;"/><path d="M497.6282,87.8606 L496.472,92.9388 L498.8001,92.9388 L497.6282,87.8606 Z M496.1438,85.6263 L499.1282,85.6263 L502.4876,98.0169 L500.0345,98.0169 L499.2688,94.9544 L495.9876,94.9544 L495.2376,98.0169 L492.8001,98.0169 L496.1438,85.6263 Z " fill="#000000"/><text fill="#000000" font-family="sans-serif" font-size="14" font-style="italic" lengthAdjust="spacing" textLength="48.4463" x="518.0188" y="97.3636">Animal</text><line style="stroke:#181818;stroke-width:0.5;" x1="395.72" x2="656.2639" y1="108.5169" y2="108.5169"/><polygon fill="none" points="405.72,117.1653,409.72,121.1653,405.72,125.1653,401.72,121.1653" style="stroke:#B38D22;stroke-width:1;"/><text fill="#000000" font-family="sans-serif" font-size="14" lengthAdjust="spacing" textLength="89.0449" x="414.72" y="125.512">nome: string</text><polygon fill="none" points="405.72,133.4622,409.72,137.4622,405.72,141.4622,401.72,137.4622" style="stroke:#B38D22;stroke-width:1;"/><text fill="#000000" font-family="sans-serif" font-size="14" lengthAdjust="spacing" textLength="221.3682" x="414.72" y="141.8089">gerenciador: GerenciadorSom&amp;</text><line style="stroke:#181818;stroke-width:0.5;" x1="395.72" x2="656.2639" y1="149.1106" y2="149.1106"/><ellipse cx="405.72" cy="162.7591" fill="#84BE84" rx="3" ry="3" style="stroke:#038048;stroke-width:1;"/><text fill="#000000" font-family="sans-serif" font-size="14" lengthAdjust="spacing" textLength="236.5439" x="414.72" y="166.1057">Animal(string, GerenciadorSom&amp;)</text><ellipse cx="405.72" cy="179.0559" fill="#84BE84" rx="3" ry="3" style="stroke:#038048;stroke-width:1;"/><text fill="#000000" font-family="sans-serif" font-size="14" font-style="italic" lengthAdjust="spacing" textLength="120.4834" x="414.72" y="182.4026">fazerSom() : void</text></g><!--class Cachorro--><g class="entity" data-entity="Cachorro" data-source-line="21" data-uid="ent0004" id="entity_Cachorro"><rect fill="#F1F1F1" height="72.5938" rx="2.5" ry="2.5" style="stroke:#181818;stroke-width:0.5;" width="277.665" x="387.16" y="249.7069"/><ellipse cx="489.9588" cy="265.7069" fill="#ADD1B2" rx="11" ry="11" style="stroke:#181818;stroke-width:1;"/><path d="M492.9276,271.3475 Q492.3495,271.6444 491.7088,271.785 Q491.0682,271.9412 490.3651,271.9412 Q487.8651,271.9412 486.537,270.3006 Q485.2245,268.6444 485.2245,265.5194 Q485.2245,262.3944 486.537,260.7381 Q487.8651,259.0819 490.3651,259.0819 Q491.0682,259.0819 491.7088,259.2381 Q492.3651,259.3944 492.9276,259.6912 L492.9276,262.41 Q492.3026,261.8319 491.7088,261.5662 Q491.1151,261.285 490.4901,261.285 Q489.1463,261.285 488.4588,262.3631 Q487.7713,263.4256 487.7713,265.5194 Q487.7713,267.6131 488.4588,268.6912 Q489.1463,269.7537 490.4901,269.7537 Q491.1151,269.7537 491.7088,269.4881 Q492.3026,269.2069 492.9276,268.6287 L492.9276,271.3475 Z " fill="#000000"/><text fill="#000000" font-family="sans-serif" font-size="14" lengthAdjust="spacing" textLength="63.5674" x="510.4588" y="270.5536">Cachorro</text><line style="stroke:#181818;stroke-width:0.5;" x1="388.16" x2="663.825" y1="281.7069" y2="281.7069"/><ellipse cx="398.16" cy="295.3553" fill="#84BE84" rx="3" ry="3" style="stroke:#038048;stroke-width:1;"/><text fill="#000000" font-family="sans-serif" font-size="14" lengthAdjust="spacing" textLength="251.665" x="407.16" y="298.702">Cachorro(string, GerenciadorSom&amp;)</text><ellipse cx="398.16" cy="311.6522" fill="#84BE84" rx="3" ry="3" style="stroke:#038048;stroke-width:1;"/><text fill="#000000" font-family="sans-serif" font-size="14" lengthAdjust="spacing" textLength="120.4834" x="407.16" y="314.9989">fazerSom() : void</text></g><!--class Gato--><g class="entity" data-entity="Gato" data-source-line="26" data-uid="ent0005" id="entity_Gato"><rect fill="#F1F1F1" height="72.5938" rx="2.5" ry="2.5" style="stroke:#181818;stroke-width:0.5;" width="277.665" x="700.16" y="249.7069"/><ellipse cx="818.0013" cy="265.7069" fill="#ADD1B2" rx="11" ry="11" style="stroke:#181818;stroke-width:1;"/><path d="M820.9701,271.3475 Q820.3919,271.6444 819.7513,271.785 Q819.1107,271.9412 818.4076,271.9412 Q815.9076,271.9412 814.5794,270.3006 Q813.2669,268.6444 813.2669,265.5194 Q813.2669,262.3944 814.5794,260.7381 Q815.9076,259.0819 818.4076,259.0819 Q819.1107,259.0819 819.7513,259.2381 Q820.4076,259.3944 820.9701,259.6912 L820.9701,262.41 Q820.3451,261.8319 819.7513,261.5662 Q819.1576,261.285 818.5326,261.285 Q817.1888,261.285 816.5013,262.3631 Q815.8138,263.4256 815.8138,265.5194 Q815.8138,267.6131 816.5013,268.6912 Q817.1888,269.7537 818.5326,269.7537 Q819.1576,269.7537 819.7513,269.4881 Q820.3451,269.2069 820.9701,268.6287 L820.9701,271.3475 Z " fill="#000000"/><text fill="#000000" font-family="sans-serif" font-size="14" lengthAdjust="spacing" textLength="33.4824" x="838.5013" y="270.5536">Gato</text><line style="stroke:#181818;stroke-width:0.5;" x1="701.16" x2="976.825" y1="281.7069" y2="281.7069"/><ellipse cx="711.16" cy="295.3553" fill="#84BE84" rx="3" ry="3" style="stroke:#038048;stroke-width:1;"/><text fill="#000000" font-family="sans-serif" font-size="14" lengthAdjust="spacing" textLength="251.665" x="720.16" y="298.702">Cachorro(string, GerenciadorSom&amp;)</text><ellipse cx="711.16" cy="311.6522" fill="#84BE84" rx="3" ry="3" style="stroke:#038048;stroke-width:1;"/><text fill="#000000" font-family="sans-serif" font-size="14" lengthAdjust="spacing" textLength="120.4834" x="720.16" y="314.9989">fazerSom() : void</text></g><!--reverse link Animal to Cachorro--><g class="link" data-entity-1="Animal" data-entity-2="Cachorro" data-source-line="35" data-uid="lnk6" id="link_Animal_Cachorro"><path codeLine="35" d="M525.99,208.0369 C525.99,227.9069 525.99,231.6569 525.99,249.4169" fill="none" id="Animal-backto-Cachorro" style="stroke:#181818;stroke-width:1;"/><polygon fill="none" points="525.99,190.0369,519.99,208.0369,531.99,208.0369,525.99,190.0369" style="stroke:#181818;stroke-width:1;"/></g><!--reverse link Animal to Gato--><g class="link" data-entity-1="Animal" data-entity-2="Gato" data-source-line="36" data-uid="lnk7" id="link_Animal_Gato"><path codeLine="36" d="M675.37,133.2969 C761.03,133.2969 838.99,133.2969 838.99,133.2969 C838.99,133.2969 838.99,204.2469 838.99,249.4269" fill="none" id="Animal-backto-Gato" style="stroke:#181818;stroke-width:1;"/><polygon fill="none" points="657.37,133.2969,675.37,139.2969,675.37,127.2969,657.37,133.2969" style="stroke:#181818;stroke-width:1;"/></g><!--reverse link Animal to GerenciadorSom--><g class="link" data-entity-1="Animal" data-entity-2="GerenciadorSom" data-source-line="40" data-uid="lnk8" id="link_Animal_GerenciadorSom"><path codeLine="40" d="M382.35,133.2969 C314.57,133.2969 257.99,133.2969 257.99,133.2969 C257.99,133.2969 257.99,213.4769 257.99,257.6369" fill="none" id="Animal-backto-GerenciadorSom" style="stroke:#181818;stroke-width:1;"/><polygon fill="none" points="394.35,133.2969,388.35,129.2969,382.35,133.2969,388.35,137.2969,394.35,133.2969" style="stroke:#181818;stroke-width:1;"/><path d="M6,43.2969 L6,128.2969 L259,128.2969 L259,53.2969 L249,43.2969 L6,43.2969" fill="#FEFFDD" style="stroke:#181818;stroke-width:0.5;"/><path d="M249,43.2969 L249,53.2969 L259,53.2969 L249,43.2969" fill="#FEFFDD" style="stroke:#181818;stroke-width:0.5;"/><text fill="#000000" font-family="sans-serif" font-size="13" font-weight="bold" lengthAdjust="spacing" textLength="175.3032" x="12" y="60.3638">Associa&#231;&#227;o (Agrega&#231;&#227;o)</text><text fill="#000000" font-family="sans-serif" font-size="13" lengthAdjust="spacing" textLength="188.2969" x="12" y="75.4966">A classe 'Animal' possui uma</text><text fill="#000000" font-family="sans-serif" font-size="13" font-weight="bold" lengthAdjust="spacing" textLength="75.1182" x="12" y="90.6294">refer&#234;ncia</text><text fill="#000000" font-family="sans-serif" font-size="13" lengthAdjust="spacing" textLength="153.7402" x="91.2505" y="90.6294">para 'GerenciadorSom'.</text><text fill="#000000" font-family="sans-serif" font-size="13" lengthAdjust="spacing" textLength="202.2427" x="12" y="105.7622">V&#225;rios animais compartilham o</text><text fill="#000000" font-family="sans-serif" font-size="13" lengthAdjust="spacing" textLength="179.4229" x="12" y="120.895">mesmo objeto gerenciador.</text><text fill="#000000" font-family="sans-serif" font-size="13" lengthAdjust="spacing" textLength="23.0356" x="363.5229" y="129.9674">1..*</text><text fill="#000000" font-family="sans-serif" font-size="13" lengthAdjust="spacing" textLength="8.271" x="249.1432" y="246.8743">1</text></g><!--SRC=[hLF1Rjim3BthAmWFc9DroT1h41J8Kg2xzD9XkzCEusYrH4EI0xHTFsROeTZk-mB_s2ZBQLEZtMav627vzDuZHUMmPhlLLUkmU-Z-a8S67K9hOAzzYpKOr1vgRHfM_bhRM3KIMmet3G6xi6Erqni2Casu0KEc8EUL2ZhK1ESQApc0881rZTwBm0nMLlUq11Vao9OQD-mYv3CRfNAOpMO3Eheh7GMCELN6tF4PmSET0lcT12unnXCVdBRL51QmPxrHzoF2ZoYVLI4e75Yn3ye0YRutLm-qRomRMa3YJ9dgINunyl8sMKaCWv7tOyoq1zqTLE_XP8ktr5j_pRI7St9wZnlqHtDOOxbZv_WmWKFyR-6NrOR9OlWlRCdx5TLOQhPeo0PEpgNqYHpQxW5XSa5M_jVwDgxUJvvACHkct_q2JFT1KCGRwxVoiMFghMPgG2-_nr4DnMV928kYA-zPlFSwC5bLZgeXQ6JphcXBhliTk-jDNBOw6ZwiQUjbvRzSZYRmg9wTpkVlCc2Hoqwp4Kefoq7UYOrlvbfcjYpENZKpNNuepWIpEhIU9ubSN7hVQdcMc2ZSa-Du9eqdVowTpmNxjVlXjFI2Goyb6y46NU-a9nQ08MyOkFX6SlT7kprNP3SGpVy5]--></g></svg>