<svg xmlns="http://www.w3.org/2000/svg" xmlns:xlink="http://www.w3.org/1999/xlink" contentStyleType="text/css" data-diagram-type="CLASS" height="506px" preserveAspectRatio="none" style="width:961px;height:506px;background:#FFFFFF;" version="1.1" viewBox="0 0 961 506" width="961px" zoomAndPan="magnify"><defs/><g><!--class Pokemon--><g class="entity" data-entity="Pokemon" data-source-line="1" data-uid="ent0002" id="entity_Pokemon"><rect fill="#F1F1F1" height="194.6719" rx="2.5" ry="2.5" style="stroke:#181818;stroke-width:0.5;" width="256.2207" x="346.16" y="7"/><ellipse cx="437.618" cy="23" fill="#A9DCDF" rx="11" ry="11" style="stroke:#181818;stroke-width:1;"/><path d="M437.7274,18.3438 L436.5711,23.4219 L438.8993,23.4219 L437.7274,18.3438 Z M436.243,16.1094 L439.2274,16.1094 L442.5868,28.5 L440.1336,28.5 L439.368,25.4375 L436.0868,25.4375 L435.3368,28.5 L432.8993,28.5 L436.243,16.1094 Z " fill="#000000"/><text fill="#000000" font-family="sans-serif" font-size="14" font-style="italic" lengthAdjust="spacing" textLength="64.8047" x="458.118" y="27.8467">Pokemon</text><line style="stroke:#181818;stroke-width:0.5;" x1="347.16" x2="601.3807" y1="39" y2="39"/><polygon fill="none" points="357.16,47.6484,361.16,51.6484,357.16,55.6484,353.16,51.6484" style="stroke:#B38D22;stroke-width:1;"/><text fill="#000000" font-family="sans-serif" font-size="14" lengthAdjust="spacing" textLength="89.0586" x="366.16" y="55.9951">name: string</text><polygon fill="none" points="357.16,63.9453,361.16,67.9453,357.16,71.9453,353.16,67.9453" style="stroke:#B38D22;stroke-width:1;"/><text fill="#000000" font-family="sans-serif" font-size="14" lengthAdjust="spacing" textLength="65.9668" x="366.16" y="72.292">index: int</text><polygon fill="none" points="357.16,80.2422,361.16,84.2422,357.16,88.2422,353.16,84.2422" style="stroke:#B38D22;stroke-width:1;"/><text fill="#000000" font-family="sans-serif" font-size="14" lengthAdjust="spacing" textLength="135.7139" x="366.16" y="88.5889">statusEvolution: int</text><polygon fill="none" points="357.16,96.5391,361.16,100.5391,357.16,104.5391,353.16,100.5391" style="stroke:#B38D22;stroke-width:1;"/><text fill="#000000" font-family="sans-serif" font-size="14" lengthAdjust="spacing" textLength="76.2891" x="366.16" y="104.8857">shiny: bool</text><polygon fill="none" points="357.16,112.8359,361.16,116.8359,357.16,120.8359,353.16,116.8359" style="stroke:#B38D22;stroke-width:1;"/><text fill="#000000" font-family="sans-serif" font-size="14" lengthAdjust="spacing" textLength="85.2441" x="366.16" y="121.1826">height: float</text><polygon fill="none" points="357.16,129.1328,361.16,133.1328,357.16,137.1328,353.16,133.1328" style="stroke:#B38D22;stroke-width:1;"/><text fill="#000000" font-family="sans-serif" font-size="14" lengthAdjust="spacing" textLength="87.8213" x="366.16" y="137.4795">weight: float</text><line style="stroke:#181818;stroke-width:0.5;" x1="347.16" x2="601.3807" y1="144.7813" y2="144.7813"/><ellipse cx="357.16" cy="158.4297" fill="#84BE84" rx="3" ry="3" style="stroke:#038048;stroke-width:1;"/><text fill="#000000" font-family="sans-serif" font-size="14" lengthAdjust="spacing" textLength="230.2207" x="366.16" y="161.7764">Pokemon(string name, int index)</text><ellipse cx="357.16" cy="174.7266" fill="#84BE84" rx="3" ry="3" style="stroke:#038048;stroke-width:1;"/><text fill="#000000" font-family="sans-serif" font-size="14" lengthAdjust="spacing" textLength="70.3145" x="366.16" y="178.0732">printInfo()</text><ellipse cx="357.16" cy="191.0234" fill="#84BE84" rx="3" ry="3" style="stroke:#038048;stroke-width:1;"/><text fill="#000000" font-family="sans-serif" font-size="14" font-style="italic" lengthAdjust="spacing" textLength="95.9697" x="366.16" y="194.3701">evolve(): void</text></g><!--class FirePokemon--><g class="entity" data-entity="FirePokemon" data-source-line="13" data-uid="ent0003" id="entity_FirePokemon"><rect fill="#F1F1F1" height="96.8906" rx="2.5" ry="2.5" style="stroke:#181818;stroke-width:0.5;" width="282.5322" x="7" y="261.68"/><ellipse cx="98.458" cy="277.68" fill="#A9DCDF" rx="11" ry="11" style="stroke:#181818;stroke-width:1;"/><path d="M98.5674,273.0238 L97.4111,278.1019 L99.7393,278.1019 L98.5674,273.0238 Z M97.083,270.7894 L100.0674,270.7894 L103.4268,283.18 L100.9736,283.18 L100.208,280.1175 L96.9268,280.1175 L96.1768,283.18 L93.7393,283.18 L97.083,270.7894 Z " fill="#000000"/><text fill="#000000" font-family="sans-serif" font-size="14" font-style="italic" lengthAdjust="spacing" textLength="91.1162" x="118.958" y="282.5267">FirePokemon</text><line style="stroke:#181818;stroke-width:0.5;" x1="8" x2="288.5322" y1="293.68" y2="293.68"/><line style="stroke:#181818;stroke-width:0.5;" x1="8" x2="288.5322" y1="301.68" y2="301.68"/><ellipse cx="18" cy="315.3284" fill="#84BE84" rx="3" ry="3" style="stroke:#038048;stroke-width:1;"/><text fill="#000000" font-family="sans-serif" font-size="14" lengthAdjust="spacing" textLength="256.5322" x="27" y="318.6751">FirePokemon(string name, int index)</text><ellipse cx="18" cy="331.6253" fill="#84BE84" rx="3" ry="3" style="stroke:#038048;stroke-width:1;"/><text fill="#000000" font-family="sans-serif" font-size="14" font-style="italic" lengthAdjust="spacing" textLength="95.9697" x="27" y="334.972">evolve(): void</text><ellipse cx="18" cy="347.9222" fill="#84BE84" rx="3" ry="3" style="stroke:#038048;stroke-width:1;"/><text fill="#000000" font-family="sans-serif" font-size="14" lengthAdjust="spacing" textLength="101.2402" x="27" y="351.2689">burnUp(): void</text></g><!--class WaterPokemon--><g class="entity" data-entity="WaterPokemon" data-source-line="19" data-uid="ent0005" id="entity_WaterPokemon"><rect fill="#F1F1F1" height="96.8906" rx="2.5" ry="2.5" style="stroke:#181818;stroke-width:0.5;" width="298.501" x="325.02" y="261.68"/><ellipse cx="416.478" cy="277.68" fill="#A9DCDF" rx="11" ry="11" style="stroke:#181818;stroke-width:1;"/><path d="M416.5874,273.0238 L415.4311,278.1019 L417.7593,278.1019 L416.5874,273.0238 Z M415.103,270.7894 L418.0874,270.7894 L421.4468,283.18 L418.9936,283.18 L418.228,280.1175 L414.9468,280.1175 L414.1968,283.18 L411.7593,283.18 L415.103,270.7894 Z " fill="#000000"/><text fill="#000000" font-family="sans-serif" font-size="14" font-style="italic" lengthAdjust="spacing" textLength="107.085" x="436.978" y="282.5267">WaterPokemon</text><line style="stroke:#181818;stroke-width:0.5;" x1="326.02" x2="622.521" y1="293.68" y2="293.68"/><line style="stroke:#181818;stroke-width:0.5;" x1="326.02" x2="622.521" y1="301.68" y2="301.68"/><ellipse cx="336.02" cy="315.3284" fill="#84BE84" rx="3" ry="3" style="stroke:#038048;stroke-width:1;"/><text fill="#000000" font-family="sans-serif" font-size="14" lengthAdjust="spacing" textLength="272.501" x="345.02" y="318.6751">WaterPokemon(string name, int index)</text><ellipse cx="336.02" cy="331.6253" fill="#84BE84" rx="3" ry="3" style="stroke:#038048;stroke-width:1;"/><text fill="#000000" font-family="sans-serif" font-size="14" font-style="italic" lengthAdjust="spacing" textLength="95.9697" x="345.02" y="334.972">evolve(): void</text><ellipse cx="336.02" cy="347.9222" fill="#84BE84" rx="3" ry="3" style="stroke:#038048;stroke-width:1;"/><text fill="#000000" font-family="sans-serif" font-size="14" lengthAdjust="spacing" textLength="118.2002" x="345.02" y="351.2689">waterGun(): void</text></g><!--class GrassPokemon--><g class="entity" data-entity="GrassPokemon" data-source-line="25" data-uid="ent0007" id="entity_GrassPokemon"><rect fill="#F1F1F1" height="96.8906" rx="2.5" ry="2.5" style="stroke:#181818;stroke-width:0.5;" width="295.9922" x="658.27" y="261.68"/><ellipse cx="749.728" cy="277.68" fill="#A9DCDF" rx="11" ry="11" style="stroke:#181818;stroke-width:1;"/><path d="M749.8374,273.0238 L748.6811,278.1019 L751.0093,278.1019 L749.8374,273.0238 Z M748.353,270.7894 L751.3374,270.7894 L754.6968,283.18 L752.2436,283.18 L751.478,280.1175 L748.1968,280.1175 L747.4468,283.18 L745.0093,283.18 L748.353,270.7894 Z " fill="#000000"/><text fill="#000000" font-family="sans-serif" font-size="14" font-style="italic" lengthAdjust="spacing" textLength="104.5762" x="770.228" y="282.5267">GrassPokemon</text><line style="stroke:#181818;stroke-width:0.5;" x1="659.27" x2="953.2622" y1="293.68" y2="293.68"/><line style="stroke:#181818;stroke-width:0.5;" x1="659.27" x2="953.2622" y1="301.68" y2="301.68"/><ellipse cx="669.27" cy="315.3284" fill="#84BE84" rx="3" ry="3" style="stroke:#038048;stroke-width:1;"/><text fill="#000000" font-family="sans-serif" font-size="14" lengthAdjust="spacing" textLength="269.9922" x="678.27" y="318.6751">GrassPokemon(string name, int index)</text><ellipse cx="669.27" cy="331.6253" fill="#84BE84" rx="3" ry="3" style="stroke:#038048;stroke-width:1;"/><text fill="#000000" font-family="sans-serif" font-size="14" font-style="italic" lengthAdjust="spacing" textLength="95.9697" x="678.27" y="334.972">evolve(): void</text><ellipse cx="669.27" cy="347.9222" fill="#84BE84" rx="3" ry="3" style="stroke:#038048;stroke-width:1;"/><text fill="#000000" font-family="sans-serif" font-size="14" lengthAdjust="spacing" textLength="114.8711" x="678.27" y="351.2689">vineWhip(): void</text></g><!--class Charmander--><g class="entity" data-entity="Charmander" data-source-line="31" data-uid="ent0009" id="entity_Charmander"><rect fill="#F1F1F1" height="80.5938" rx="2.5" ry="2.5" style="stroke:#181818;stroke-width:0.5;" width="278.7451" x="8.89" y="418.57"/><ellipse cx="100.348" cy="434.57" fill="#ADD1B2" rx="11" ry="11" style="stroke:#181818;stroke-width:1;"/><path d="M103.3168,440.2106 Q102.7386,440.5075 102.098,440.6481 Q101.4574,440.8044 100.7543,440.8044 Q98.2543,440.8044 96.9261,439.1638 Q95.6136,437.5075 95.6136,434.3825 Q95.6136,431.2575 96.9261,429.6013 Q98.2543,427.945 100.7543,427.945 Q101.4574,427.945 102.098,428.1013 Q102.7543,428.2575 103.3168,428.5544 L103.3168,431.2731 Q102.6918,430.695 102.098,430.4294 Q101.5043,430.1481 100.8793,430.1481 Q99.5355,430.1481 98.848,431.2263 Q98.1605,432.2888 98.1605,434.3825 Q98.1605,436.4763 98.848,437.5544 Q99.5355,438.6169 100.8793,438.6169 Q101.5043,438.6169 102.098,438.3513 Q102.6918,438.07 103.3168,437.4919 L103.3168,440.2106 Z " fill="#000000"/><text fill="#000000" font-family="sans-serif" font-size="14" lengthAdjust="spacing" textLength="87.3291" x="120.848" y="439.4167">Charmander</text><line style="stroke:#181818;stroke-width:0.5;" x1="9.89" x2="286.6351" y1="450.57" y2="450.57"/><line style="stroke:#181818;stroke-width:0.5;" x1="9.89" x2="286.6351" y1="458.57" y2="458.57"/><ellipse cx="19.89" cy="472.2184" fill="#84BE84" rx="3" ry="3" style="stroke:#038048;stroke-width:1;"/><text fill="#000000" font-family="sans-serif" font-size="14" lengthAdjust="spacing" textLength="252.7451" x="28.89" y="475.5651">Charmander(string name, int index)</text><ellipse cx="19.89" cy="488.5153" fill="#84BE84" rx="3" ry="3" style="stroke:#038048;stroke-width:1;"/><text fill="#000000" font-family="sans-serif" font-size="14" lengthAdjust="spacing" textLength="95.9697" x="28.89" y="491.862">evolve(): void</text></g><!--class Squirtle--><g class="entity" data-entity="Squirtle" data-source-line="36" data-uid="ent0011" id="entity_Squirtle"><rect fill="#F1F1F1" height="80.5938" rx="2.5" ry="2.5" style="stroke:#181818;stroke-width:0.5;" width="245.7002" x="351.42" y="418.57"/><ellipse cx="442.878" cy="434.57" fill="#ADD1B2" rx="11" ry="11" style="stroke:#181818;stroke-width:1;"/><path d="M445.8468,440.2106 Q445.2686,440.5075 444.628,440.6481 Q443.9874,440.8044 443.2843,440.8044 Q440.7843,440.8044 439.4561,439.1638 Q438.1436,437.5075 438.1436,434.3825 Q438.1436,431.2575 439.4561,429.6013 Q440.7843,427.945 443.2843,427.945 Q443.9874,427.945 444.628,428.1013 Q445.2843,428.2575 445.8468,428.5544 L445.8468,431.2731 Q445.2218,430.695 444.628,430.4294 Q444.0343,430.1481 443.4093,430.1481 Q442.0655,430.1481 441.378,431.2263 Q440.6905,432.2888 440.6905,434.3825 Q440.6905,436.4763 441.378,437.5544 Q442.0655,438.6169 443.4093,438.6169 Q444.0343,438.6169 444.628,438.3513 Q445.2218,438.07 445.8468,437.4919 L445.8468,440.2106 Z " fill="#000000"/><text fill="#000000" font-family="sans-serif" font-size="14" lengthAdjust="spacing" textLength="54.2842" x="463.378" y="439.4167">Squirtle</text><line style="stroke:#181818;stroke-width:0.5;" x1="352.42" x2="596.1202" y1="450.57" y2="450.57"/><line style="stroke:#181818;stroke-width:0.5;" x1="352.42" x2="596.1202" y1="458.57" y2="458.57"/><ellipse cx="362.42" cy="472.2184" fill="#84BE84" rx="3" ry="3" style="stroke:#038048;stroke-width:1;"/><text fill="#000000" font-family="sans-serif" font-size="14" lengthAdjust="spacing" textLength="219.7002" x="371.42" y="475.5651">Squirtle(string name, int index)</text><ellipse cx="362.42" cy="488.5153" fill="#84BE84" rx="3" ry="3" style="stroke:#038048;stroke-width:1;"/><text fill="#000000" font-family="sans-serif" font-size="14" lengthAdjust="spacing" textLength="95.9697" x="371.42" y="491.862">evolve(): void</text></g><!--class Bulbasaur--><g class="entity" data-entity="Bulbasaur" data-source-line="41" data-uid="ent0013" id="entity_Bulbasaur"><rect fill="#F1F1F1" height="80.5938" rx="2.5" ry="2.5" style="stroke:#181818;stroke-width:0.5;" width="261.751" x="675.39" y="418.57"/><ellipse cx="766.848" cy="434.57" fill="#ADD1B2" rx="11" ry="11" style="stroke:#181818;stroke-width:1;"/><path d="M769.8168,440.2106 Q769.2386,440.5075 768.598,440.6481 Q767.9574,440.8044 767.2543,440.8044 Q764.7543,440.8044 763.4261,439.1638 Q762.1136,437.5075 762.1136,434.3825 Q762.1136,431.2575 763.4261,429.6013 Q764.7543,427.945 767.2543,427.945 Q767.9574,427.945 768.598,428.1013 Q769.2543,428.2575 769.8168,428.5544 L769.8168,431.2731 Q769.1918,430.695 768.598,430.4294 Q768.0043,430.1481 767.3793,430.1481 Q766.0355,430.1481 765.348,431.2263 Q764.6605,432.2888 764.6605,434.3825 Q764.6605,436.4763 765.348,437.5544 Q766.0355,438.6169 767.3793,438.6169 Q768.0043,438.6169 768.598,438.3513 Q769.1918,438.07 769.8168,437.4919 L769.8168,440.2106 Z " fill="#000000"/><text fill="#000000" font-family="sans-serif" font-size="14" lengthAdjust="spacing" textLength="70.335" x="787.348" y="439.4167">Bulbasaur</text><line style="stroke:#181818;stroke-width:0.5;" x1="676.39" x2="936.141" y1="450.57" y2="450.57"/><line style="stroke:#181818;stroke-width:0.5;" x1="676.39" x2="936.141" y1="458.57" y2="458.57"/><ellipse cx="686.39" cy="472.2184" fill="#84BE84" rx="3" ry="3" style="stroke:#038048;stroke-width:1;"/><text fill="#000000" font-family="sans-serif" font-size="14" lengthAdjust="spacing" textLength="235.751" x="695.39" y="475.5651">Bulbasaur(string name, int index)</text><ellipse cx="686.39" cy="488.5153" fill="#84BE84" rx="3" ry="3" style="stroke:#038048;stroke-width:1;"/><text fill="#000000" font-family="sans-serif" font-size="14" lengthAdjust="spacing" textLength="95.9697" x="695.39" y="491.862">evolve(): void</text></g><!--reverse link Pokemon to FirePokemon--><g class="link" data-entity-1="Pokemon" data-entity-2="FirePokemon" data-source-line="14" data-uid="lnk4" id="link_Pokemon_FirePokemon"><path d="M330.6256,195.1293 C289.6456,220.7393 260.87,238.73 224.78,261.29" fill="none" id="Pokemon-backto-FirePokemon" style="stroke:#181818;stroke-width:1;"/><polygon fill="none" points="345.89,185.59,327.4458,190.0412,333.8054,200.2174,345.89,185.59" style="stroke:#181818;stroke-width:1;"/></g><!--reverse link Pokemon to WaterPokemon--><g class="link" data-entity-1="Pokemon" data-entity-2="WaterPokemon" data-source-line="20" data-uid="lnk6" id="link_Pokemon_WaterPokemon"><path d="M474.27,220.16 C474.27,240.7 474.27,243.51 474.27,261.25" fill="none" id="Pokemon-backto-WaterPokemon" style="stroke:#181818;stroke-width:1;"/><polygon fill="none" points="474.27,202.16,468.27,220.16,480.27,220.16,474.27,202.16" style="stroke:#181818;stroke-width:1;"/></g><!--reverse link Pokemon to GrassPokemon--><g class="link" data-entity-1="Pokemon" data-entity-2="GrassPokemon" data-source-line="26" data-uid="lnk8" id="link_Pokemon_GrassPokemon"><path d="M617.9711,193.5454 C660.4811,219.6354 691.13,238.45 728.63,261.47" fill="none" id="Pokemon-backto-GrassPokemon" style="stroke:#181818;stroke-width:1;"/><polygon fill="none" points="602.63,184.13,614.8326,198.6591,621.1096,188.4317,602.63,184.13" style="stroke:#181818;stroke-width:1;"/></g><!--reverse link FirePokemon to Charmander--><g class="link" data-entity-1="FirePokemon" data-entity-2="Charmander" data-source-line="32" data-uid="lnk10" id="link_FirePokemon_Charmander"><path d="M148.27,376.76 C148.27,396.01 148.27,399.96 148.27,418.31" fill="none" id="FirePokemon-backto-Charmander" style="stroke:#181818;stroke-width:1;"/><polygon fill="none" points="148.27,358.76,142.27,376.76,154.27,376.76,148.27,358.76" style="stroke:#181818;stroke-width:1;"/></g><!--reverse link WaterPokemon to Squirtle--><g class="link" data-entity-1="WaterPokemon" data-entity-2="Squirtle" data-source-line="37" data-uid="lnk12" id="link_WaterPokemon_Squirtle"><path d="M474.27,376.76 C474.27,396.01 474.27,399.96 474.27,418.31" fill="none" id="WaterPokemon-backto-Squirtle" style="stroke:#181818;stroke-width:1;"/><polygon fill="none" points="474.27,358.76,468.27,376.76,480.27,376.76,474.27,358.76" style="stroke:#181818;stroke-width:1;"/></g><!--reverse link GrassPokemon to Bulbasaur--><g class="link" data-entity-1="GrassPokemon" data-entity-2="Bulbasaur" data-source-line="42" data-uid="lnk14" id="link_GrassPokemon_Bulbasaur"><path d="M806.27,376.76 C806.27,396.01 806.27,399.96 806.27,418.31" fill="none" id="GrassPokemon-backto-Bulbasaur" style="stroke:#181818;stroke-width:1;"/><polygon fill="none" points="806.27,358.76,800.27,376.76,812.27,376.76,806.27,358.76" style="stroke:#181818;stroke-width:1;"/></g><!--SRC=[fPB1JiCm38RlVOf8N3gD9yWH11Ctf0djxAxU6f4w8t6weMdlJjhGBWKf4kpIAl4lVv-JGENOmfR5LeDpujMyOsj8d0iXxWH1YrA4WABziA6enfCCFnwMZe6zU-gCzgmC9OL6qQSKbJ5wM3UezWrBiTC6OkBuOsSveik86zZtVSC8NGoPGoZn2-rCsQ_Fy2r_2IKC5XsM2oawe-hYKXGm7-rPMHp7mnCZrVDnbsaYOv6ZzbqgR-dja17P0AFDcwIH6rIEVPkLfupCoePlNYQDt23JAS9DesOd4nqU6x0jX3vsCaWlArfSGzaNyliPHCRwmolB6YV2x1OYOipy2_3WTGKE_7M6sT56mXJw4-8B]--></g></svg>