<svg xmlns="http://www.w3.org/2000/svg" xmlns:xlink="http://www.w3.org/1999/xlink" contentStyleType="text/css" data-diagram-type="CLASS" height="278px" preserveAspectRatio="none" style="width:296px;height:278px;background:#FFFFFF;" version="1.1" viewBox="0 0 296 278" width="296px" zoomAndPan="magnify"><defs/><g><!--class Mago--><g class="entity" data-entity="Mago" data-source-line="4" data-uid="ent0002" id="entity_Mago"><rect fill="#F1F1F1" height="48" rx="2.5" ry="2.5" style="stroke:#181818;stroke-width:0.5;" width="70.1104" x="110.54" y="7"/><ellipse cx="125.54" cy="23" fill="#ADD1B2" rx="11" ry="11" style="stroke:#181818;stroke-width:1;"/><path d="M128.5088,28.6406 Q127.9306,28.9375 127.29,29.0781 Q126.6494,29.2344 125.9463,29.2344 Q123.4463,29.2344 122.1181,27.5938 Q120.8056,25.9375 120.8056,22.8125 Q120.8056,19.6875 122.1181,18.0313 Q123.4463,16.375 125.9463,16.375 Q126.6494,16.375 127.29,16.5313 Q127.9463,16.6875 128.5088,16.9844 L128.5088,19.7031 Q127.8838,19.125 127.29,18.8594 Q126.6963,18.5781 126.0713,18.5781 Q124.7275,18.5781 124.04,19.6563 Q123.3525,20.7188 123.3525,22.8125 Q123.3525,24.9063 124.04,25.9844 Q124.7275,27.0469 126.0713,27.0469 Q126.6963,27.0469 127.29,26.7813 Q127.8838,26.5 128.5088,25.9219 L128.5088,28.6406 Z " fill="#000000"/><text fill="#000000" font-family="sans-serif" font-size="14" lengthAdjust="spacing" textLength="38.1104" x="139.54" y="27.8467">Mago</text><line style="stroke:#181818;stroke-width:0.5;" x1="111.54" x2="179.6504" y1="39" y2="39"/><line style="stroke:#181818;stroke-width:0.5;" x1="111.54" x2="179.6504" y1="47" y2="47"/></g><!--class MagoBranco--><g class="entity" data-entity="MagoBranco" data-source-line="7" data-uid="ent0003" id="entity_MagoBranco"><rect fill="#F1F1F1" height="48" rx="2.5" ry="2.5" style="stroke:#181818;stroke-width:0.5;" width="119.1855" x="7" y="115"/><ellipse cx="22" cy="131" fill="#ADD1B2" rx="11" ry="11" style="stroke:#181818;stroke-width:1;"/><path d="M24.9688,136.6406 Q24.3906,136.9375 23.75,137.0781 Q23.1094,137.2344 22.4063,137.2344 Q19.9063,137.2344 18.5781,135.5938 Q17.2656,133.9375 17.2656,130.8125 Q17.2656,127.6875 18.5781,126.0313 Q19.9063,124.375 22.4063,124.375 Q23.1094,124.375 23.75,124.5313 Q24.4063,124.6875 24.9688,124.9844 L24.9688,127.7031 Q24.3438,127.125 23.75,126.8594 Q23.1563,126.5781 22.5313,126.5781 Q21.1875,126.5781 20.5,127.6563 Q19.8125,128.7188 19.8125,130.8125 Q19.8125,132.9063 20.5,133.9844 Q21.1875,135.0469 22.5313,135.0469 Q23.1563,135.0469 23.75,134.7813 Q24.3438,134.5 24.9688,133.9219 L24.9688,136.6406 Z " fill="#000000"/><text fill="#000000" font-family="sans-serif" font-size="14" lengthAdjust="spacing" textLength="87.1855" x="36" y="135.8467">MagoBranco</text><line style="stroke:#181818;stroke-width:0.5;" x1="8" x2="125.1855" y1="147" y2="147"/><line style="stroke:#181818;stroke-width:0.5;" x1="8" x2="125.1855" y1="155" y2="155"/></g><!--class MagoAmarelo--><g class="entity" data-entity="MagoAmarelo" data-source-line="8" data-uid="ent0004" id="entity_MagoAmarelo"><rect fill="#F1F1F1" height="48" rx="2.5" ry="2.5" style="stroke:#181818;stroke-width:0.5;" width="128.7285" x="161.23" y="115"/><ellipse cx="176.23" cy="131" fill="#ADD1B2" rx="11" ry="11" style="stroke:#181818;stroke-width:1;"/><path d="M179.1988,136.6406 Q178.6206,136.9375 177.98,137.0781 Q177.3394,137.2344 176.6363,137.2344 Q174.1363,137.2344 172.8081,135.5938 Q171.4956,133.9375 171.4956,130.8125 Q171.4956,127.6875 172.8081,126.0313 Q174.1363,124.375 176.6363,124.375 Q177.3394,124.375 177.98,124.5313 Q178.6363,124.6875 179.1988,124.9844 L179.1988,127.7031 Q178.5738,127.125 177.98,126.8594 Q177.3863,126.5781 176.7613,126.5781 Q175.4175,126.5781 174.73,127.6563 Q174.0425,128.7188 174.0425,130.8125 Q174.0425,132.9063 174.73,133.9844 Q175.4175,135.0469 176.7613,135.0469 Q177.3863,135.0469 177.98,134.7813 Q178.5738,134.5 179.1988,133.9219 L179.1988,136.6406 Z " fill="#000000"/><text fill="#000000" font-family="sans-serif" font-size="14" lengthAdjust="spacing" textLength="96.7285" x="190.23" y="135.8467">MagoAmarelo</text><line style="stroke:#181818;stroke-width:0.5;" x1="162.23" x2="288.9585" y1="147" y2="147"/><line style="stroke:#181818;stroke-width:0.5;" x1="162.23" x2="288.9585" y1="155" y2="155"/></g><!--class Clerigo--><g class="entity" data-entity="Clerigo" data-source-line="11" data-uid="ent0005" id="entity_Clerigo"><rect fill="#F1F1F1" height="48" rx="2.5" ry="2.5" style="stroke:#181818;stroke-width:0.5;" width="81.376" x="104.9" y="223"/><ellipse cx="119.9" cy="239" fill="#ADD1B2" rx="11" ry="11" style="stroke:#181818;stroke-width:1;"/><path d="M122.8688,244.6406 Q122.2906,244.9375 121.65,245.0781 Q121.0094,245.2344 120.3063,245.2344 Q117.8063,245.2344 116.4781,243.5938 Q115.1656,241.9375 115.1656,238.8125 Q115.1656,235.6875 116.4781,234.0313 Q117.8063,232.375 120.3063,232.375 Q121.0094,232.375 121.65,232.5313 Q122.3063,232.6875 122.8688,232.9844 L122.8688,235.7031 Q122.2438,235.125 121.65,234.8594 Q121.0563,234.5781 120.4313,234.5781 Q119.0875,234.5781 118.4,235.6563 Q117.7125,236.7188 117.7125,238.8125 Q117.7125,240.9063 118.4,241.9844 Q119.0875,243.0469 120.4313,243.0469 Q121.0563,243.0469 121.65,242.7813 Q122.2438,242.5 122.8688,241.9219 L122.8688,244.6406 Z " fill="#000000"/><text fill="#000000" font-family="sans-serif" font-size="14" lengthAdjust="spacing" textLength="49.376" x="133.9" y="243.8467">Clerigo</text><line style="stroke:#181818;stroke-width:0.5;" x1="105.9" x2="185.276" y1="255" y2="255"/><line style="stroke:#181818;stroke-width:0.5;" x1="105.9" x2="185.276" y1="263" y2="263"/></g><!--reverse link Mago to MagoBranco--><g class="link" data-entity-1="Mago" data-entity-2="MagoBranco" data-source-line="14" data-uid="lnk6" id="link_Mago_MagoBranco"><path codeLine="14" d="M117.5018,69.6913 C104.3218,87.3713 97.05,97.13 83.89,114.79" fill="none" id="Mago-backto-MagoBranco" style="stroke:#181818;stroke-width:1;"/><polygon fill="none" points="128.26,55.26,112.6914,66.1052,122.3123,73.2773,128.26,55.26" style="stroke:#181818;stroke-width:1;"/></g><!--reverse link Mago to MagoAmarelo--><g class="link" data-entity-1="Mago" data-entity-2="MagoAmarelo" data-source-line="15" data-uid="lnk7" id="link_Mago_MagoAmarelo"><path codeLine="15" d="M173.9916,69.6287 C187.3316,87.3087 194.75,97.13 208.08,114.79" fill="none" id="Mago-backto-MagoAmarelo" style="stroke:#181818;stroke-width:1;"/><polygon fill="none" points="163.15,55.26,169.202,73.2426,178.7811,66.0149,163.15,55.26" style="stroke:#181818;stroke-width:1;"/></g><!--reverse link MagoBranco to Clerigo--><g class="link" data-entity-1="MagoBranco" data-entity-2="Clerigo" data-source-line="17" data-uid="lnk8" id="link_MagoBranco_Clerigo"><path codeLine="17" d="M94.6829,177.6952 C107.8529,195.3752 115.13,205.13 128.3,222.79" fill="none" id="MagoBranco-backto-Clerigo" style="stroke:#181818;stroke-width:1;"/><polygon fill="none" points="83.93,163.26,89.8712,181.2795,99.4946,174.1109,83.93,163.26" style="stroke:#181818;stroke-width:1;"/></g><!--reverse link MagoAmarelo to Clerigo--><g class="link" data-entity-1="MagoAmarelo" data-entity-2="Clerigo" data-source-line="18" data-uid="lnk9" id="link_MagoAmarelo_Clerigo"><path codeLine="18" d="M197.1984,177.6287 C183.8584,195.3087 176.44,205.13 163.11,222.79" fill="none" id="MagoAmarelo-backto-Clerigo" style="stroke:#181818;stroke-width:1;"/><polygon fill="none" points="208.04,163.26,192.4089,174.0149,201.988,181.2426,208.04,163.26" style="stroke:#181818;stroke-width:1;"/></g><!--SRC=[ROun3i8m34NtdC8R2xq1Iu6rXt0RGoqrIKbQ92GkmzGJS89S39CMI2Mao8F_S_vhMHEGwOTRHQOc7vJQG0bDXo4Gr2Z3EXXSxq3BOpHe1r8fXmhFBl41z8XXkGh0WdX3ckF3CuQCtdkqZSiMfK5FdLkrQl9yHOrWCHbiuJ8IjEHbfN7f-jznwEHsbZhIYIrRiHPQEZ1EyIboEds5DawetWQmknT5BhTUVWL_n1n-gZ9e5Rm0]--></g></svg>